<svg xmlns="http://www.w3.org/2000/svg" width="611.001" height="160" viewBox="0 0 611.001 160">
  <g id="Group_230" data-name="Group 230" transform="translate(-4204 -1606)">
    <g id="Group_229" data-name="Group 229">
      <g id="Group_228" data-name="Group 228">
        <g id="Group_213" data-name="Group 213">
          <g id="Group_212" data-name="Group 212" transform="translate(3 22)">
            <g id="Group_219" data-name="Group 219">
              <path id="Path_940" data-name="Path 940" d="M0,0H611V160H0Z" transform="translate(4201 1584)" fill="none"/>
              <g id="Layer_x0020_1" transform="translate(4201 1590)">
                <g id="_1616013212176" transform="translate(0)">
                  <path id="Path_915" data-name="Path 915" d="M9161.988,553.315a12.382,12.382,0,0,0-4.114,4.96c1.651-7.35,4.909-15.007,11.287-17.322a17.212,17.212,0,0,1,3.617-.333,7.835,7.835,0,0,1,5.248,1.774,5.307,5.307,0,0,1,2.208,4.19c0,2.16-.441,3.65-1.57,4.779a5.589,5.589,0,0,1-3.95,1.619,9.189,9.189,0,0,1-3.4-.594c-.045-.026-.154-.051-.257-.1l0,0a8.763,8.763,0,0,0-1.254-.464,8.406,8.406,0,0,0-2.364-.438,10.542,10.542,0,0,0-5.45,1.926Z" transform="translate(-8820.607 -520.71)" fill="#226cf5"/>
                  <path id="Path_916" data-name="Path 916" d="M8782.079,551.03a5.972,5.972,0,0,1,1.672,3.16c.061,5.32.1,13.542.159,19.271-.033.412-.033.847-.033,1.26V599.6a6.487,6.487,0,0,1-1.771,4.628,6.137,6.137,0,0,1-4.519,1.774,6.207,6.207,0,0,1-4.529-1.774,6.537,6.537,0,0,1-1.771-4.628V555.528a6.2,6.2,0,0,1,1.771-4.522,5.953,5.953,0,0,1,4.529-1.875,6.1,6.1,0,0,1,4.491,1.9h0Z" transform="translate(-8448.261 -528.907)" fill="#226cf5"/>
                  <path id="Path_917" data-name="Path 917" d="M1472.763,540.62c5.935,0,10.741.952,14.39,2.828,3.622,1.825,5.449,4.266,5.449,7.35a6.562,6.562,0,0,1-1.365,4.085,4.338,4.338,0,0,1-3.57,1.669,7.379,7.379,0,0,1-2.723-.409,21.161,21.161,0,0,1-2.108-1.26,10.809,10.809,0,0,0-1.876-1.364,12.741,12.741,0,0,0-3.133-.949,16.2,16.2,0,0,0-3.262-.413c-5.243,0-9.382,1.645-12.387,4.935-2.928,3.212-4.422,7.451-4.422,12.692a18.19,18.19,0,0,0,4.526,12.59,14.937,14.937,0,0,0,11.536,4.935c3.419,0,5.986-.413,7.655-1.26a14.818,14.818,0,0,0,1.672-1.05,11.212,11.212,0,0,1,2.108-1.261,5.559,5.559,0,0,1,2.311-.412,5.182,5.182,0,0,1,4.088,1.672,6.039,6.039,0,0,1,1.566,4.316c0,1.673-.978,3.265-2.93,4.729a23.372,23.372,0,0,1-7.759,3.573,40.276,40.276,0,0,1-10.28,1.257,26.735,26.735,0,0,1-14.26-3.776,25.813,25.813,0,0,1-9.456-10.381,32.936,32.936,0,0,1-3.364-14.907,31.937,31.937,0,0,1,3.468-15.107,25.838,25.838,0,0,1,9.868-10.279,26.9,26.9,0,0,1,14.259-3.8h0Z" transform="translate(-1391.946 -520.71)" fill="#226cf5"/>
                  <path id="Path_918" data-name="Path 918" d="M438.093,613.836a6.664,6.664,0,0,1,2.006,4.729,5.485,5.485,0,0,1-2.109,4.392,6.436,6.436,0,0,1-4.292,1.8,5.946,5.946,0,0,1-4.628-2.108l-19.734-22.175v-.028a6.934,6.934,0,0,1-1.926-4.8,6.841,6.841,0,0,1,1.952-4.8L427.5,570.693a6.351,6.351,0,0,1,4.624-2,5.334,5.334,0,0,1,4.087,2,5.5,5.5,0,0,1,1.873,3.881,6.349,6.349,0,0,1-2.518,4.729l-14.494,14.6,17.013,19.934h0Z" transform="translate(-392.406 -547.746)" fill="#226cf5"/>
                  <path id="Path_919" data-name="Path 919" d="M12.618,581.4V560.324a6.1,6.1,0,0,0-1.8-4.523A5.956,5.956,0,0,0,6.3,553.9a5.99,5.99,0,0,0-4.522,1.9A6.151,6.151,0,0,0,0,560.324V604.11a6.518,6.518,0,0,0,1.774,4.628A6.146,6.146,0,0,0,6.3,610.513a6.185,6.185,0,0,0,4.523-1.774,6.535,6.535,0,0,0,1.8-4.628Z" transform="translate(0 -533.501)" fill="#226cf5"/>
                  <path id="Path_920" data-name="Path 920" d="M3763.258,585.615a30.254,30.254,0,0,0,3.774-15.109,29.686,29.686,0,0,0-3.774-15.008,26.555,26.555,0,0,0-10.381-10.381,29.5,29.5,0,0,0-28.883,0,26.628,26.628,0,0,0-10.278,10.381,29.643,29.643,0,0,0-3.777,15.008,30.224,30.224,0,0,0,3.777,15.109,26.684,26.684,0,0,0,10.278,10.279,30.235,30.235,0,0,0,28.883,0A26.8,26.8,0,0,0,3763.258,585.615Zm-11.024-24.257a19.958,19.958,0,0,1,0,18.245,15.494,15.494,0,0,1-5.782,6.193,14.961,14.961,0,0,1-7.967,2.211,15.576,15.576,0,0,1-8.1-2.211,16.852,16.852,0,0,1-5.782-6.193,19.514,19.514,0,0,1-2.106-9.124,19.064,19.064,0,0,1,2.106-9.122,16.21,16.21,0,0,1,5.782-6.3,15.462,15.462,0,0,1,8.1-2.213,14.865,14.865,0,0,1,7.967,2.213A15.148,15.148,0,0,1,3752.234,561.358Z" transform="translate(-3573.31 -521.404)" fill="#226cf5"/>
                  <path id="Path_921" data-name="Path 921" d="M5477.409,568.593a5.727,5.727,0,0,1,4.193,1.669,5.2,5.2,0,0,1,1.668,3.983,8.085,8.085,0,0,1-.848,3.159l-19.632,43.247a6.381,6.381,0,0,1-2.212,2.828,5.624,5.624,0,0,1-3.158,1.154l-.951.1a6.066,6.066,0,0,1-3.369-1.054,7.734,7.734,0,0,1-2.31-3.059l-19.528-43.249a8.321,8.321,0,0,1-.723-3.367,5.138,5.138,0,0,1,1.774-3.776,5.987,5.987,0,0,1,4.421-1.774,6.833,6.833,0,0,1,3.67,1.053,6.382,6.382,0,0,1,2.521,2.928l14.494,33.172,14.393-33.07a6.837,6.837,0,0,1,2.311-3.032,5.251,5.251,0,0,1,3.292-.919h-.005v0Z" transform="translate(-5230.544 -547.525)" fill="#226cf5"/>
                  <path id="Path_922" data-name="Path 922" d="M7084.06,573.3a5.417,5.417,0,0,0,2-4.085,27.436,27.436,0,0,0-3.673-13.849,27.94,27.94,0,0,0-9.864-10.174,24.274,24.274,0,0,0-13-3.778,25.658,25.658,0,0,0-13.237,3.673,26.435,26.435,0,0,0-9.967,10.383,32.225,32.225,0,0,0-3.776,15.853,29.771,29.771,0,0,0,3.563,14.6,25.7,25.7,0,0,0,10.077,10.076,32.716,32.716,0,0,0,25.389,2,25.446,25.446,0,0,0,7.865-4.084c1.956-1.542,2.932-3.263,2.932-5.141a5,5,0,0,0-1.569-3.675,5.155,5.155,0,0,0-3.777-1.567,7.8,7.8,0,0,0-3.57.952c-.359.209-1,.619-2,1.26a17.805,17.805,0,0,1-3.776,1.669,24.137,24.137,0,0,1-6.71.746A15.944,15.944,0,0,1,7045,574.917l34.637,0a6.927,6.927,0,0,0,4.415-1.619h.005Zm-38.933-8.915c1.467-7.63,6.274-11.436,14.366-11.436a13.58,13.58,0,0,1,8.812,3.161,10.765,10.765,0,0,1,4.294,7.553v.746h-27.472v-.026h0Z" transform="translate(-6773.547 -521.471)" fill="#226cf5"/>
                  <path id="Path_923" data-name="Path 923" d="M9892.5,585.242a4.975,4.975,0,0,0,.949,3.135,21.422,21.422,0,0,0,9.765,7.452,35.511,35.511,0,0,0,12.906,2.31,24.807,24.807,0,0,0,9.766-2,19.541,19.541,0,0,0,7.863-5.782,14.229,14.229,0,0,0,3.03-9.02c0-3.777-.872-6.833-2.622-9.12a16.04,16.04,0,0,0-6.4-5.141,68.233,68.233,0,0,0-9.453-3.263c-2.726-.77-4.861-1.389-6.4-1.876a11.031,11.031,0,0,1-3.674-2.212,5.1,5.1,0,0,1-1.465-3.776c0-3.857,2.676-5.783,7.967-5.783a15.853,15.853,0,0,1,6.709,1.365,13.136,13.136,0,0,1,4.931,3.674,5.124,5.124,0,0,0,3.771,1.464,5.313,5.313,0,0,0,3.374-1.158,4.821,4.821,0,0,0,2-3.98,5.9,5.9,0,0,0-1.363-3.779,18.585,18.585,0,0,0-8.4-5.884,30.442,30.442,0,0,0-10.72-2.006,24.093,24.093,0,0,0-9.973,2.11,18.881,18.881,0,0,0-7.554,5.78,13.885,13.885,0,0,0-2.823,8.712c0,3.855.9,6.938,2.725,9.253a18.47,18.47,0,0,0,6.6,5.037,78.3,78.3,0,0,0,9.968,3.367,38.144,38.144,0,0,1,8.605,3.157,5.04,5.04,0,0,1,2.823,4.628q0,5.893-8.17,6.192a19.937,19.937,0,0,1-8.3-1.567,22.24,22.24,0,0,1-6.5-4.829,5.906,5.906,0,0,0-4.19-2,5.985,5.985,0,0,0-5.762,5.547h0Z" transform="translate(-9528.179 -519.978)" fill="#226cf5"/>
                  <path id="Path_924" data-name="Path 924" d="M11349.249,567.747a5.421,5.421,0,0,1-2.006,4.085,6.641,6.641,0,0,1-4.42,1.567l-34.643,0a15.963,15.963,0,0,0,15.962,13.234,22.946,22.946,0,0,0,6.707-.746,20.934,20.934,0,0,0,3.777-1.669c.981-.62,1.646-1.054,2.006-1.259a8.128,8.128,0,0,1,3.569-.952,5.168,5.168,0,0,1,3.782,1.567,5.022,5.022,0,0,1,1.559,3.674c0,1.874-.971,3.6-2.927,5.138a24.388,24.388,0,0,1-7.858,4.088,30.554,30.554,0,0,1-9.972,1.669,31.234,31.234,0,0,1-15.418-3.675,25.767,25.767,0,0,1-10.07-10.073,29.932,29.932,0,0,1-3.575-14.6,32.282,32.282,0,0,1,3.776-15.856,26.273,26.273,0,0,1,9.972-10.381,25.551,25.551,0,0,1,13.211-3.675,24.365,24.365,0,0,1,13.025,3.78,28.19,28.19,0,0,1,9.868,10.175,27.614,27.614,0,0,1,3.674,13.9h0v0Zm-26.545-16.289q-12.171,0-14.36,11.434h27.488v-.745a10.965,10.965,0,0,0-4.29-7.557,13.835,13.835,0,0,0-8.838-3.132h0Z" transform="translate(-10879.727 -520.007)" fill="#226cf5"/>
                  <path id="Path_925" data-name="Path 925" d="M13012.193,542.393a6.139,6.139,0,0,0-4.523-1.773,5.98,5.98,0,0,0-4.518,1.877c-1.187,1.18-1.362,2.03-1.362,3.856a23.154,23.154,0,0,0-7.737-4.294,32.817,32.817,0,0,0-9.587-1.438,23.367,23.367,0,0,0-12.9,3.777,25.423,25.423,0,0,0-9.122,10.381,35.176,35.176,0,0,0,0,30.016,26.98,26.98,0,0,0,9.357,10.382,24.268,24.268,0,0,0,13.1,3.675,21.391,21.391,0,0,0,9.357-2.107,22.022,22.022,0,0,0,7.139-5.24,6.888,6.888,0,0,0,1.771,4.523,6.652,6.652,0,0,0,9.045,0,6.483,6.483,0,0,0,1.777-4.628V547a6.236,6.236,0,0,0-1.8-4.6Zm-14.567,40.008a15.015,15.015,0,0,1-22.257,0,18.994,18.994,0,0,1-4.19-12.59,18.756,18.756,0,0,1,4.295-12.591,14.7,14.7,0,0,1,22.152,0,20.624,20.624,0,0,1,0,25.181Z" transform="translate(-12481.828 -520.71)" fill="#226cf5"/>
                  <path id="Path_926" data-name="Path 926" d="M14707.2,587.705a5.2,5.2,0,0,1-.949-3.136,5.484,5.484,0,0,1,2.725-4.624,5.679,5.679,0,0,1,3.031-.952,5.881,5.881,0,0,1,4.2,2,22.634,22.634,0,0,0,6.5,4.83,19.857,19.857,0,0,0,8.3,1.567c5.449-.206,8.194-2.285,8.194-6.192a5.039,5.039,0,0,0-2.822-4.627,38,38,0,0,0-8.6-3.161,77.829,77.829,0,0,1-9.975-3.365,18.318,18.318,0,0,1-6.615-5.036c-1.821-2.313-2.714-5.4-2.714-9.253a13.877,13.877,0,0,1,2.825-8.711,18.913,18.913,0,0,1,7.55-5.783,24.469,24.469,0,0,1,9.975-2.105,30.4,30.4,0,0,1,10.714,2,18.666,18.666,0,0,1,8.4,5.884,5.913,5.913,0,0,1,1.361,3.779,4.829,4.829,0,0,1-2.006,3.98,5.277,5.277,0,0,1-3.367,1.159,5.107,5.107,0,0,1-3.771-1.466,13.088,13.088,0,0,0-4.929-3.672,15.9,15.9,0,0,0-6.714-1.365q-7.978,0-7.967,5.782a5.1,5.1,0,0,0,1.462,3.779,11.531,11.531,0,0,0,3.672,2.209c1.55.49,3.673,1.131,6.4,1.877a68.086,68.086,0,0,1,9.461,3.263,16.22,16.22,0,0,1,6.4,5.141,14.756,14.756,0,0,1,2.616,9.12,14.3,14.3,0,0,1-3.032,9.02,19.429,19.429,0,0,1-7.857,5.783,24.714,24.714,0,0,1-9.767,2,35.4,35.4,0,0,1-12.9-2.31,21.081,21.081,0,0,1-9.788-7.424h0Z" transform="translate(-14164.655 -519.304)" fill="#226cf5"/>
                  <path id="Path_927" data-name="Path 927" d="M3159.992,3080.88a2.874,2.874,0,0,1-.977,2,3.21,3.21,0,0,1-2.132.77h-22.869a11.442,11.442,0,0,0,3.569,7.608,11.2,11.2,0,0,0,7.733,2.854,12.233,12.233,0,0,0,5.063-.9,12.906,12.906,0,0,0,3.447-2.339,3.721,3.721,0,0,1,1.872-.591,2.393,2.393,0,0,1,1.828.771,2.5,2.5,0,0,1,.767,1.826,3.211,3.211,0,0,1-1.309,2.465,15.376,15.376,0,0,1-5.013,3.187,16.362,16.362,0,0,1-6.372,1.312,18.949,18.949,0,0,1-9.277-2.214,15.456,15.456,0,0,1-6.167-6.166A18.434,18.434,0,0,1,3128,3082.5a19.825,19.825,0,0,1,2.211-9.535,16.525,16.525,0,0,1,5.91-6.376,15.286,15.286,0,0,1,15.7-.076,16.356,16.356,0,0,1,5.834,5.909,16.157,16.157,0,0,1,2.336,8.458h0Zm-15.909-10.794a9.55,9.55,0,0,0-9.813,8.378h19.167v-.518a7.907,7.907,0,0,0-3.106-5.653,9.706,9.706,0,0,0-6.245-2.208h0Z" transform="translate(-3012.801 -2951.526)" fill="#333232"/>
                  <path id="Path_928" data-name="Path 928" d="M4381.443,2704.319a2.922,2.922,0,0,1,2.207.9,2.824,2.824,0,0,1,.9,2.208v41.835a3.057,3.057,0,0,1-.9,2.207,2.831,2.831,0,0,1-2.207.9,3,3,0,0,1-2.21-.847,3.211,3.211,0,0,1-.848-2.261v-1.828a13.026,13.026,0,0,1-4.6,3.956,12.82,12.82,0,0,1-6.292,1.62,14.392,14.392,0,0,1-8-2.285,16,16,0,0,1-5.651-6.3,19.827,19.827,0,0,1-2.084-9.148,20.219,20.219,0,0,1,2-9.094,15.908,15.908,0,0,1,5.657-6.375,14.742,14.742,0,0,1,14.237-.847,13.767,13.767,0,0,1,4.752,3.7V2707.4a2.983,2.983,0,0,1,.85-2.208,2.927,2.927,0,0,1,2.185-.875Zm-13.259,42.994a9.474,9.474,0,0,0,5.4-1.567,10.362,10.362,0,0,0,3.7-4.3,13.7,13.7,0,0,0,1.365-6.165,13.561,13.561,0,0,0-1.365-6.117,10.192,10.192,0,0,0-3.7-4.339,10.164,10.164,0,0,0-10.845,0,10.6,10.6,0,0,0-3.7,4.339,15.043,15.043,0,0,0,0,12.282,10.791,10.791,0,0,0,3.7,4.3A9.687,9.687,0,0,0,4368.184,2747.313Z" transform="translate(-4191.493 -2604.725)" fill="#333232"/>
                  <path id="Path_929" data-name="Path 929" d="M5644.323,3085.309a3.078,3.078,0,0,1,3.112,3.112v17.267c0,4.5-1.257,8.02-3.774,10.537-2.466,2.466-5.989,3.7-10.509,3.7-4.5,0-8-1.234-10.461-3.7-2.466-2.522-3.7-6.015-3.7-10.537v-17.267a3.116,3.116,0,0,1,.847-2.21,2.923,2.923,0,0,1,2.21-.9,3.078,3.078,0,0,1,3.114,3.112v17.267c0,5.677,2.673,8.506,7.989,8.506a8.06,8.06,0,0,0,6.039-2.134c1.39-1.439,2.083-3.545,2.083-6.376v-17.263a3.14,3.14,0,0,1,.845-2.211,3.058,3.058,0,0,1,2.21-.9h-.006Z" transform="translate(-5412.054 -2971.684)" fill="#333232"/>
                  <path id="Path_930" data-name="Path 930" d="M6777.3,3064.38a19.712,19.712,0,0,1,8.51,1.62c2.283,1.076,3.438,2.468,3.438,4.162a3.064,3.064,0,0,1-.714,2.007,2.261,2.261,0,0,1-1.828.846,2.929,2.929,0,0,1-1.363-.257c-.308-.181-.746-.465-1.308-.847a6.382,6.382,0,0,0-1.237-.9,9.017,9.017,0,0,0-2.209-.642,13.94,13.94,0,0,0-2.6-.255,11.338,11.338,0,0,0-5.987,1.565,10.616,10.616,0,0,0-4.03,4.341,13,13,0,0,0-1.441,6.116,13.75,13.75,0,0,0,1.365,6.17,10.665,10.665,0,0,0,9.735,5.858,12.133,12.133,0,0,0,5.447-1.03,13.477,13.477,0,0,0,1.236-.847,8.09,8.09,0,0,1,1.1-.771,2.69,2.69,0,0,1,1.231-.253,2.43,2.43,0,0,1,2,.847,2.8,2.8,0,0,1,.771,2.082,3.7,3.7,0,0,1-1.747,2.723,13.87,13.87,0,0,1-4.627,2.132,21.454,21.454,0,0,1-6.166.849,16.324,16.324,0,0,1-8.711-2.286,16.1,16.1,0,0,1-5.858-6.375,20.347,20.347,0,0,1-2.005-9.1,18.979,18.979,0,0,1,2.134-9.022,15.885,15.885,0,0,1,5.958-6.369,16.939,16.939,0,0,1,8.9-2.367h0Z" transform="translate(-6511.342 -2951.526)" fill="#333232"/>
                  <path id="Path_931" data-name="Path 931" d="M7974.851,3063.319a2.952,2.952,0,0,1,2.212.9,2.876,2.876,0,0,1,.9,2.263v28.189a3.053,3.053,0,0,1-.9,2.208,2.847,2.847,0,0,1-2.212.9,3,3,0,0,1-2.208-.85,3.2,3.2,0,0,1-.85-2.26v-1.7a14.45,14.45,0,0,1-4.6,3.906,13.36,13.36,0,0,1-6.294,1.567,14.6,14.6,0,0,1-8.044-2.286,16.074,16.074,0,0,1-5.657-6.294,20.546,20.546,0,0,1-2-9.151,20.221,20.221,0,0,1,2-9.1,16,16,0,0,1,5.657-6.376,14.734,14.734,0,0,1,14.24-.842,12.789,12.789,0,0,1,4.729,3.644v-1.564a3.159,3.159,0,0,1,.845-2.263,2.854,2.854,0,0,1,2.186-.9h0Zm-13.26,29.425a9.446,9.446,0,0,0,5.4-1.568,10.421,10.421,0,0,0,3.705-4.293,13.856,13.856,0,0,0,1.362-6.166,13.684,13.684,0,0,0-1.362-6.116,10.435,10.435,0,0,0-3.705-4.293,9.272,9.272,0,0,0-5.4-1.617,9.664,9.664,0,0,0-5.444,1.565,10.563,10.563,0,0,0-3.7,4.292,15.123,15.123,0,0,0,0,12.334,10.743,10.743,0,0,0,3.7,4.294,9.676,9.676,0,0,0,5.444,1.568Z" transform="translate(-7652.593 -2950.156)" fill="#333232"/>
                  <path id="Path_932" data-name="Path 932" d="M9236.251,2877.622v19.351c0,2.156.98,3.235,2.922,3.235a5.473,5.473,0,0,0,1.235-.207,3.84,3.84,0,0,1,1.243-.256,1.755,1.755,0,0,1,1.433.721,2.844,2.844,0,0,1,.594,1.823,2.756,2.756,0,0,1-1.568,2.339,6.522,6.522,0,0,1-3.5.978,15.877,15.877,0,0,1-3.951-.464,5.968,5.968,0,0,1-3.183-2.285,9.619,9.619,0,0,1-1.368-5.654V2877.6l-3.776,0a2.66,2.66,0,0,1-2.855-2.851,2.705,2.705,0,0,1,.773-2,2.969,2.969,0,0,1,2.082-.769h3.776v-5.45a3.131,3.131,0,0,1,.85-2.212,3.012,3.012,0,0,1,2.269-.9,2.805,2.805,0,0,1,2.124.9,2.97,2.97,0,0,1,.9,2.212v5.45h5.4a2.834,2.834,0,0,1,2,4.854,2.7,2.7,0,0,1-2,.77h-5.4v.028Z" transform="translate(-8883.792 -2757.957)" fill="#333232"/>
                  <path id="Path_933" data-name="Path 933" d="M10153.9,2819.808a3.094,3.094,0,0,1-.895,2.21,2.862,2.862,0,0,1-2.212.9,3.041,3.041,0,0,1-2.206-.9,3.1,3.1,0,0,1-.856-2.21v-28.14a3.1,3.1,0,0,1,.856-2.208,3.156,3.156,0,0,1,4.418,0,2.99,2.99,0,0,1,.895,2.208Zm-3.106-35.511a4.547,4.547,0,0,1-2.726-.642,2.886,2.886,0,0,1-.767-2.215v-1.027a2.6,2.6,0,0,1,.844-2.211,4.689,4.689,0,0,1,2.726-.642,3.715,3.715,0,0,1,2.593.722,2.514,2.514,0,0,1,.856,2.131v1.027a2.6,2.6,0,0,1-.856,2.214,4.633,4.633,0,0,1-2.67.639h0Z" transform="translate(-9773.595 -2675.268)" fill="#333232"/>
                  <path id="Path_934" data-name="Path 934" d="M10722.32,3081.466a18.247,18.247,0,0,1-2.262,9.1,16.472,16.472,0,0,1-6.245,6.3,16.857,16.857,0,0,1-8.638,2.285,17.044,17.044,0,0,1-8.708-2.285,16.742,16.742,0,0,1-6.169-6.3,18.14,18.14,0,0,1-2.284-9.1,18.538,18.538,0,0,1,2.284-9.146,16.585,16.585,0,0,1,6.169-6.375,17.259,17.259,0,0,1,8.708-2.286,16.818,16.818,0,0,1,8.638,2.286,16.3,16.3,0,0,1,6.245,6.375A18.494,18.494,0,0,1,10722.32,3081.466Zm-6.162,0a12.873,12.873,0,0,0-1.488-6.241,10.534,10.534,0,0,0-3.957-4.294,10.62,10.62,0,0,0-11.1,0,10.852,10.852,0,0,0-3.963,4.294,13.408,13.408,0,0,0-1.439,6.241,12.936,12.936,0,0,0,1.439,6.172,11.6,11.6,0,0,0,3.963,4.29,10.681,10.681,0,0,0,5.574,1.49,10.44,10.44,0,0,0,5.525-1.49,10.655,10.655,0,0,0,3.957-4.29A12.586,12.586,0,0,0,10716.158,3081.466Z" transform="translate(-10294.4 -2950.831)" fill="#333232"/>
                  <path id="Path_935" data-name="Path 935" d="M12010.018,3064.36q11.682,0,11.7,14.03v17.68a3.063,3.063,0,0,1-.894,2.208,2.873,2.873,0,0,1-2.224.9,3.075,3.075,0,0,1-2.207-.9,3.116,3.116,0,0,1-.851-2.208v-17.6a9.921,9.921,0,0,0-1.743-6.116c-1.155-1.518-3.084-2.285-5.7-2.285a9.665,9.665,0,0,0-4.759,1.181,8.577,8.577,0,0,0-3.312,3.059,7.835,7.835,0,0,0-1.155,4.161v17.605a3.073,3.073,0,0,1-.9,2.208,2.851,2.851,0,0,1-2.208.9,3.016,3.016,0,0,1-2.217-.852,3.2,3.2,0,0,1-.845-2.259v-27.805a3.116,3.116,0,0,1,.845-2.208,3.112,3.112,0,0,1,5.324,2.208v2.264a13.679,13.679,0,0,1,4.682-4.343,12.183,12.183,0,0,1,6.468-1.83h0Z" transform="translate(-11551.034 -2951.505)" fill="#333232"/>
                  <path id="Path_936" data-name="Path 936" d="M16182.8,135.962V124.3h5.166a6.8,6.8,0,0,1,2.363.315,2.542,2.542,0,0,1,1.3,1.108,3.283,3.283,0,0,1,.49,1.756,2.938,2.938,0,0,1-.807,2.093,4.059,4.059,0,0,1-2.475,1.08,4.221,4.221,0,0,1,.926.581,7.709,7.709,0,0,1,1.275,1.552l2.029,3.176h-1.93l-1.547-2.426c-.447-.7-.818-1.238-1.113-1.61a3.327,3.327,0,0,0-.785-.779,2.329,2.329,0,0,0-.7-.31,4.884,4.884,0,0,0-.859-.054h-1.787v5.179Zm1.549-6.515h3.311a4.883,4.883,0,0,0,1.648-.22,1.671,1.671,0,0,0,.9-.7,1.865,1.865,0,0,0,.307-1.045,1.736,1.736,0,0,0-.6-1.363,2.763,2.763,0,0,0-1.885-.532h-3.684Z" transform="translate(-15586.816 -119.722)" fill="#2b2a29"/>
                  <path id="Path_937" data-name="Path 937" d="M16042.289,0a10.285,10.285,0,1,1-7.281,3.015A10.265,10.265,0,0,1,16042.289,0Zm6.146,4.148a8.7,8.7,0,1,0,2.541,6.145,8.65,8.65,0,0,0-2.541-6.145Z" transform="translate(-15441.577 0)" fill="#2b2a29"/>
                </g>
              </g>
            </g>
          </g>
        </g>
      </g>
    </g>
  </g>
</svg>
